<?xml version="1.0" encoding="iso-8859-1"?>
<!-- Generator: Adobe Illustrator 19.0.0, SVG Export Plug-In . SVG Version: 6.00 Build 0)  -->
<svg version="1.1" id="Layer_1" xmlns="http://www.w3.org/2000/svg" xmlns:xlink="http://www.w3.org/1999/xlink" x="0px" y="0px"
	 viewBox="0 0 512 512" style="enable-background:new 0 0 512 512;" xml:space="preserve">
<g>
	<g>
		<g>
			<path d="M68.523,221.867h-0.085c-4.71,0-8.491,3.814-8.491,8.533c0,4.71,3.866,8.533,8.576,8.533
				c4.719,0,8.533-3.823,8.533-8.533C77.056,225.681,73.242,221.867,68.523,221.867z"/>
			<path d="M68.523,290.133h-0.085c-4.71,0-8.491,3.814-8.491,8.533c0,4.71,3.866,8.533,8.576,8.533
				c4.719,0,8.533-3.823,8.533-8.533C77.056,293.948,73.242,290.133,68.523,290.133z"/>
			<path d="M68.523,145.067h-0.085c-4.71,0-8.491,3.814-8.491,8.533c0,4.71,3.866,8.533,8.576,8.533
				c4.719,0,8.533-3.823,8.533-8.533C77.056,148.881,73.242,145.067,68.523,145.067z"/>
			<path d="M111.104,418.133c-4.71,0-8.491,3.814-8.491,8.533c0,4.71,3.866,8.533,8.576,8.533c4.719,0,8.533-3.823,8.533-8.533
				c0-4.719-3.814-8.533-8.533-8.533H111.104z"/>
			<path d="M162.133,34.133h8.533v8.533c0,4.71,3.823,8.533,8.533,8.533c4.719,0,8.533-3.823,8.533-8.533v-8.533h8.533
				c4.719,0,8.533-3.823,8.533-8.533c0-4.719-3.814-8.533-8.533-8.533h-8.533V8.533c0-4.719-3.814-8.533-8.533-8.533
				c-4.71,0-8.533,3.814-8.533,8.533v8.533h-8.533c-4.71,0-8.533,3.814-8.533,8.533C153.6,30.31,157.423,34.133,162.133,34.133z"/>
			<path d="M290.133,68.267c0,4.71,3.823,8.533,8.533,8.533c4.719,0,8.533-3.823,8.533-8.533c4.719,0,8.533-3.823,8.533-8.533
				c0-4.719-3.814-8.533-8.533-8.533c0-4.719-3.814-8.533-8.533-8.533c-4.71,0-8.533,3.814-8.533,8.533
				c-4.71,0-8.533,3.814-8.533,8.533C281.6,64.444,285.423,68.267,290.133,68.267z"/>
			<path d="M256,204.8c23.526,0,42.667-19.149,42.667-42.667v-17.067c0-23.526-19.14-42.667-42.667-42.667
				c-23.526,0-42.667,19.14-42.667,42.667v17.067C213.333,185.651,232.474,204.8,256,204.8z M230.4,145.067
				c0-14.123,11.486-25.6,25.6-25.6c14.123,0,25.6,11.477,25.6,25.6v17.067c0,14.114-11.477,25.6-25.6,25.6
				c-14.114,0-25.6-11.486-25.6-25.6V145.067z"/>
			<path d="M156.1,369.434c-0.802,0.794-19.567,19.985-19.567,57.233c0,16.111-10.948,34.133-25.6,34.133s-25.6-18.022-25.6-34.133
				c0-13.235,12.177-70.912,16.862-92.023c0.631-2.816-0.213-5.751-2.227-7.817c-2.022-2.065-4.949-2.987-7.774-2.398
				c-0.35,0.068-34.714,6.682-56.619-11.273c-12.279-10.069-18.509-26.428-18.509-48.623c0-27.11,10.453-40.806,19.669-52.89
				C44.177,201.89,51.2,192.683,51.2,179.2c0-14.814-5.009-24.841-9.429-33.69c-4.096-8.192-7.637-15.258-7.637-26.044
				c0-16.017,1.852-68.267,25.6-68.267c25.216,0,71.031,8.192,94.558,63.095c17.809,41.549,33.818,84.514,33.98,84.941
				c1.638,4.42,6.562,6.673,10.974,5.026c4.412-1.647,6.665-6.554,5.018-10.974c-0.154-0.435-16.307-43.776-34.287-85.717
				C141.577,41.284,83.422,34.133,59.733,34.133c-19.456,0-42.667,14.797-42.667,85.333c0,14.805,5.018,24.832,9.438,33.681
				c4.096,8.192,7.629,15.258,7.629,26.052c0,7.714-4.599,13.747-10.965,22.093C13.389,214.101,0,231.654,0,264.533
				c0,27.554,8.329,48.358,24.755,61.824c18.867,15.462,43.563,17.015,58.24,16.222c-4.89,22.741-14.729,70.144-14.729,84.087
				c0,24.721,17.152,51.2,42.667,51.2c25.523,0,42.667-26.479,42.667-51.2c0-29.798,14.02-44.595,14.566-45.167
				c3.337-3.337,3.337-8.738,0-12.066C164.838,366.097,159.437,366.097,156.1,369.434z"/>
			<path d="M42.923,256h-0.085c-4.71,0-8.491,3.814-8.491,8.533c0,4.71,3.866,8.533,8.576,8.533c4.719,0,8.533-3.823,8.533-8.533
				C51.456,259.814,47.642,256,42.923,256z"/>
			<path d="M128.256,119.467c0-4.719-3.814-8.533-8.533-8.533h-0.085c-4.71,0-8.491,3.814-8.491,8.533
				c0,4.71,3.866,8.533,8.576,8.533C124.442,128,128.256,124.177,128.256,119.467z"/>
			<path d="M85.589,110.933c0-4.719-3.814-8.533-8.533-8.533h-0.085c-4.71,0-8.491,3.814-8.491,8.533
				c0,4.71,3.866,8.533,8.576,8.533C81.775,119.467,85.589,115.644,85.589,110.933z"/>
			<path d="M443.989,145.067h-0.085c-4.71,0-8.491,3.814-8.491,8.533c0,4.71,3.866,8.533,8.576,8.533
				c4.719,0,8.533-3.823,8.533-8.533C452.523,148.881,448.708,145.067,443.989,145.067z"/>
			<path d="M298.232,284.297c1.493-4.471-0.922-9.301-5.393-10.795c-4.48-1.51-9.31,0.93-10.795,5.393l-8.533,25.6
				c-1.024,3.063-0.222,6.451,2.057,8.73c9.958,10.001,33.34,38.955,32.742,62.242H203.691
				c-0.597-23.287,22.784-52.241,32.751-62.242c2.278-2.278,3.081-5.666,2.057-8.73l-8.533-25.6
				c-1.493-4.463-6.315-6.904-10.795-5.393c-4.471,1.493-6.886,6.323-5.393,10.795l6.921,20.77
				c-10.803,11.93-40.789,48.683-32.708,80.998c0.947,3.797,4.361,6.468,8.277,6.468h33.391l-7.757,93.158
				c-0.393,4.693,3.098,8.815,7.791,9.207c0.247,0.026,0.478,0.034,0.717,0.034c4.395,0,8.124-3.371,8.499-7.825l7.876-94.575
				h18.432l7.885,94.575c0.367,4.454,4.104,7.825,8.491,7.825c0.239,0,0.478-0.009,0.717-0.034c4.702-0.393,8.192-4.514,7.799-9.207
				l-7.765-93.158h33.391c3.917,0,7.33-2.671,8.277-6.468c8.081-32.316-21.905-69.069-32.7-80.998L298.232,284.297z"/>
			<path d="M478.123,264.533c0-4.719-3.814-8.533-8.533-8.533h-0.085c-4.71,0-8.491,3.814-8.491,8.533
				c0,4.71,3.866,8.533,8.576,8.533C474.308,273.067,478.123,269.244,478.123,264.533z"/>
			<path d="M443.989,290.133h-0.085c-4.71,0-8.491,3.814-8.491,8.533c0,4.71,3.866,8.533,8.576,8.533
				c4.719,0,8.533-3.823,8.533-8.533C452.523,293.948,448.708,290.133,443.989,290.133z"/>
			<path d="M503.467,486.4c0-4.719-3.814-8.533-8.533-8.533c-4.71,0-8.533,3.814-8.533,8.533c-4.71,0-8.533,3.814-8.533,8.533
				c0,4.71,3.823,8.533,8.533,8.533c0,4.71,3.823,8.533,8.533,8.533c4.719,0,8.533-3.823,8.533-8.533
				c4.719,0,8.533-3.823,8.533-8.533C512,490.214,508.186,486.4,503.467,486.4z"/>
			<path d="M435.456,102.4h-0.085c-4.71,0-8.491,3.814-8.491,8.533c0,4.71,3.866,8.533,8.576,8.533c4.719,0,8.533-3.823,8.533-8.533
				C443.989,106.214,440.175,102.4,435.456,102.4z"/>
			<path d="M443.989,221.867h-0.085c-4.71,0-8.491,3.814-8.491,8.533c0,4.71,3.866,8.533,8.576,8.533
				c4.719,0,8.533-3.823,8.533-8.533C452.523,225.681,448.708,221.867,443.989,221.867z"/>
			<path d="M487.245,326.357C503.672,312.892,512,292.087,512,264.533c0-32.879-13.389-50.432-23.168-63.241
				c-6.366-8.346-10.965-14.379-10.965-22.093c0-10.795,3.541-17.86,7.637-26.052c4.42-8.849,9.429-18.876,9.429-33.681
				c0-70.537-23.202-85.333-42.667-85.333c-23.68,0-81.835,7.151-110.242,73.438c-17.971,41.941-34.125,85.282-34.287,85.717
				c-1.647,4.42,0.606,9.327,5.026,10.974c4.386,1.63,9.327-0.606,10.965-5.026c0.162-0.427,16.171-43.383,33.98-84.941
				C381.244,59.392,427.051,51.2,452.267,51.2c23.757,0,25.6,52.25,25.6,68.267c0,10.786-3.533,17.852-7.629,26.044
				c-4.42,8.849-9.438,18.876-9.438,33.69c0,13.483,7.031,22.69,14.473,32.444c9.216,12.083,19.661,25.779,19.661,52.89
				c0,22.153-6.204,38.494-18.441,48.563c-21.76,17.92-56.354,11.401-56.695,11.332c-2.816-0.555-5.751,0.35-7.765,2.415
				c-2.005,2.057-2.85,4.992-2.227,7.799c4.693,21.112,16.862,78.788,16.862,92.023c0,16.111-10.948,34.133-25.6,34.133
				c-14.652,0-25.6-18.022-25.6-34.133c0-37.248-18.765-56.44-19.567-57.233c-3.311-3.319-8.653-3.319-11.989-0.026
				c-3.345,3.285-3.379,8.678-0.119,12.041c0.597,0.623,14.609,15.42,14.609,45.218c0,24.721,17.152,51.2,42.667,51.2
				c25.523,0,42.667-26.479,42.667-51.2c0-13.943-9.83-61.346-14.729-84.087C443.716,343.381,468.386,341.82,487.245,326.357z"/>
			<path d="M273.067,221.867h-34.133c-58.377,0-67.857,105.719-68.233,110.225c-0.393,4.693,3.089,8.815,7.791,9.207
				c4.719,0.384,8.815-3.098,9.216-7.791c2.21-26.308,15.735-94.575,51.226-94.575h34.133c35.49,0,49.015,68.267,51.234,94.575
				c0.375,4.454,4.104,7.825,8.491,7.825c0.239,0,0.478-0.017,0.725-0.034c4.693-0.393,8.184-4.514,7.791-9.207
				C340.932,327.586,331.452,221.867,273.067,221.867z"/>
			<path d="M392.747,426.667c0,4.71,3.866,8.533,8.576,8.533c4.719,0,8.533-3.823,8.533-8.533c0-4.719-3.814-8.533-8.533-8.533
				h-0.085C396.527,418.133,392.747,421.948,392.747,426.667z"/>
			<path d="M392.789,110.933h-0.085c-4.71,0-8.491,3.814-8.491,8.533c0,4.71,3.866,8.533,8.576,8.533
				c4.719,0,8.533-3.823,8.533-8.533C401.323,114.748,397.508,110.933,392.789,110.933z"/>
		</g>
	</g>
</g>
<g>
</g>
<g>
</g>
<g>
</g>
<g>
</g>
<g>
</g>
<g>
</g>
<g>
</g>
<g>
</g>
<g>
</g>
<g>
</g>
<g>
</g>
<g>
</g>
<g>
</g>
<g>
</g>
<g>
</g>
</svg>
